<mxfile host="Electron" agent="Mozilla/5.0 (Windows NT 10.0; Win64; x64) AppleWebKit/537.36 (KHTML, like Gecko) draw.io/26.0.7 Chrome/128.0.6613.186 Electron/32.2.5 Safari/537.36" version="26.0.7">
  <diagram name="Page-1" id="p6dFnRLwR0O64pj2zMxW">
    <mxGraphModel dx="1050" dy="621" grid="1" gridSize="10" guides="1" tooltips="1" connect="1" arrows="1" fold="1" page="1" pageScale="1" pageWidth="850" pageHeight="1100" math="0" shadow="0">
      <root>
        <mxCell id="0" />
        <mxCell id="1" parent="0" />
        <mxCell id="haapXU8JdJSd_qIYxCa1-1" value="&lt;span style=&quot;color: rgba(0, 0, 0, 0); font-family: monospace; font-size: 0px; text-align: start; text-wrap: nowrap;&quot;&gt;%3CmxGraphModel%3E%3Croot%3E%3CmxCell%20id%3D%220%22%2F%3E%3CmxCell%20id%3D%221%22%20parent%3D%220%22%2F%3E%3CmxCell%20id%3D%222%22%20value%3D%22lorem%22%20style%3D%22rounded%3D1%3BwhiteSpace%3Dwrap%3Bhtml%3D1%3B%22%20vertex%3D%221%22%20parent%3D%221%22%3E%3CmxGeometry%20x%3D%22470%22%20y%3D%22300%22%20width%3D%22100%22%20height%3D%2230%22%20as%3D%22geometry%22%2F%3E%3C%2FmxCell%3E%3C%2Froot%3E%3C%2FmxGraphModel%3E&lt;/span&gt;&lt;span style=&quot;color: rgba(0, 0, 0, 0); font-family: monospace; font-size: 0px; text-align: start; text-wrap: nowrap;&quot;&gt;%3CmxGraphModel%3E%3Croot%3E%3CmxCell%20id%3D%220%22%2F%3E%3CmxCell%20id%3D%221%22%20parent%3D%220%22%2F%3E%3CmxCell%20id%3D%222%22%20value%3D%22lorem%22%20style%3D%22rounded%3D1%3BwhiteSpace%3Dwrap%3Bhtml%3D1%3B%22%20vertex%3D%221%22%20parent%3D%221%22%3E%3CmxGeometry%20x%3D%22470%22%20y%3D%22300%22%20width%3D%22100%22%20height%3D%2230%22%20as%3D%22geometry%22%2F%3E%3C%2FmxCell%3E%3C%2Froot%3E%3C%2FmxGraphModel%3E&lt;/span&gt;" style="whiteSpace=wrap;html=1;aspect=fixed;" parent="1" vertex="1">
          <mxGeometry x="70" y="40" width="650" height="650" as="geometry" />
        </mxCell>
        <mxCell id="haapXU8JdJSd_qIYxCa1-2" value="" style="ellipse;whiteSpace=wrap;html=1;aspect=fixed;" parent="1" vertex="1">
          <mxGeometry x="270" y="340" width="140" height="140" as="geometry" />
        </mxCell>
        <mxCell id="haapXU8JdJSd_qIYxCa1-3" value="footer" style="rounded=1;whiteSpace=wrap;html=1;" parent="1" vertex="1">
          <mxGeometry x="110" y="670" width="570" height="20" as="geometry" />
        </mxCell>
        <mxCell id="haapXU8JdJSd_qIYxCa1-4" value="button" style="rounded=1;whiteSpace=wrap;html=1;" parent="1" vertex="1">
          <mxGeometry x="460" y="375" width="100" height="30" as="geometry" />
        </mxCell>
        <mxCell id="haapXU8JdJSd_qIYxCa1-12" value="Lorem" style="rounded=0;whiteSpace=wrap;html=1;" parent="1" vertex="1">
          <mxGeometry x="70" y="40" width="650" height="30" as="geometry" />
        </mxCell>
        <mxCell id="OALJ4pV27kW1UMWHQgB1-1" value="button" style="rounded=1;whiteSpace=wrap;html=1;" vertex="1" parent="1">
          <mxGeometry x="460" y="340" width="100" height="30" as="geometry" />
        </mxCell>
        <mxCell id="OALJ4pV27kW1UMWHQgB1-2" value="button" style="rounded=1;whiteSpace=wrap;html=1;" vertex="1" parent="1">
          <mxGeometry x="460" y="410" width="100" height="30" as="geometry" />
        </mxCell>
        <mxCell id="OALJ4pV27kW1UMWHQgB1-3" value="button" style="rounded=1;whiteSpace=wrap;html=1;" vertex="1" parent="1">
          <mxGeometry x="460" y="460" width="100" height="30" as="geometry" />
        </mxCell>
        <mxCell id="OALJ4pV27kW1UMWHQgB1-4" value="button" style="rounded=1;whiteSpace=wrap;html=1;" vertex="1" parent="1">
          <mxGeometry x="460" y="560" width="100" height="30" as="geometry" />
        </mxCell>
        <mxCell id="OALJ4pV27kW1UMWHQgB1-5" value="button" style="rounded=1;whiteSpace=wrap;html=1;" vertex="1" parent="1">
          <mxGeometry x="460" y="610" width="100" height="30" as="geometry" />
        </mxCell>
        <mxCell id="OALJ4pV27kW1UMWHQgB1-7" value="button" style="rounded=1;whiteSpace=wrap;html=1;" vertex="1" parent="1">
          <mxGeometry x="460" y="510" width="100" height="30" as="geometry" />
        </mxCell>
        <mxCell id="OALJ4pV27kW1UMWHQgB1-8" value="button" style="rounded=1;whiteSpace=wrap;html=1;" vertex="1" parent="1">
          <mxGeometry x="460" y="300" width="100" height="30" as="geometry" />
        </mxCell>
        <mxCell id="OALJ4pV27kW1UMWHQgB1-9" value="lorem" style="rounded=1;whiteSpace=wrap;html=1;" vertex="1" parent="1">
          <mxGeometry x="460" y="265" width="90" height="25" as="geometry" />
        </mxCell>
        <mxCell id="OALJ4pV27kW1UMWHQgB1-10" style="edgeStyle=orthogonalEdgeStyle;rounded=0;orthogonalLoop=1;jettySize=auto;html=1;exitX=0.5;exitY=1;exitDx=0;exitDy=0;" edge="1" parent="1" source="haapXU8JdJSd_qIYxCa1-4" target="haapXU8JdJSd_qIYxCa1-4">
          <mxGeometry relative="1" as="geometry" />
        </mxCell>
        <mxCell id="OALJ4pV27kW1UMWHQgB1-11" value="button" style="rounded=1;whiteSpace=wrap;html=1;" vertex="1" parent="1">
          <mxGeometry x="580" y="285" width="100" height="30" as="geometry" />
        </mxCell>
        <mxCell id="OALJ4pV27kW1UMWHQgB1-12" value="button" style="rounded=1;whiteSpace=wrap;html=1;" vertex="1" parent="1">
          <mxGeometry x="580" y="320" width="100" height="30" as="geometry" />
        </mxCell>
        <mxCell id="OALJ4pV27kW1UMWHQgB1-13" value="button" style="rounded=1;whiteSpace=wrap;html=1;" vertex="1" parent="1">
          <mxGeometry x="580" y="365" width="100" height="30" as="geometry" />
        </mxCell>
        <mxCell id="OALJ4pV27kW1UMWHQgB1-14" value="button" style="rounded=1;whiteSpace=wrap;html=1;" vertex="1" parent="1">
          <mxGeometry x="580" y="410" width="100" height="30" as="geometry" />
        </mxCell>
        <mxCell id="OALJ4pV27kW1UMWHQgB1-15" value="button" style="rounded=1;whiteSpace=wrap;html=1;" vertex="1" parent="1">
          <mxGeometry x="580" y="460" width="100" height="30" as="geometry" />
        </mxCell>
        <mxCell id="OALJ4pV27kW1UMWHQgB1-17" value="lorem" style="rounded=1;whiteSpace=wrap;html=1;" vertex="1" parent="1">
          <mxGeometry x="580" y="250" width="90" height="25" as="geometry" />
        </mxCell>
        <mxCell id="OALJ4pV27kW1UMWHQgB1-18" value="button" style="rounded=1;whiteSpace=wrap;html=1;" vertex="1" parent="1">
          <mxGeometry x="120" y="310" width="100" height="30" as="geometry" />
        </mxCell>
        <mxCell id="OALJ4pV27kW1UMWHQgB1-19" value="button" style="rounded=1;whiteSpace=wrap;html=1;" vertex="1" parent="1">
          <mxGeometry x="120" y="360" width="100" height="30" as="geometry" />
        </mxCell>
        <mxCell id="OALJ4pV27kW1UMWHQgB1-20" value="button" style="rounded=1;whiteSpace=wrap;html=1;" vertex="1" parent="1">
          <mxGeometry x="120" y="410" width="100" height="30" as="geometry" />
        </mxCell>
        <mxCell id="OALJ4pV27kW1UMWHQgB1-21" value="button" style="rounded=1;whiteSpace=wrap;html=1;" vertex="1" parent="1">
          <mxGeometry x="120" y="460" width="100" height="30" as="geometry" />
        </mxCell>
        <mxCell id="OALJ4pV27kW1UMWHQgB1-22" value="button" style="rounded=1;whiteSpace=wrap;html=1;" vertex="1" parent="1">
          <mxGeometry x="120" y="510" width="100" height="30" as="geometry" />
        </mxCell>
        <mxCell id="OALJ4pV27kW1UMWHQgB1-23" value="lorem" style="rounded=1;whiteSpace=wrap;html=1;" vertex="1" parent="1">
          <mxGeometry x="125" y="250" width="90" height="30" as="geometry" />
        </mxCell>
        <mxCell id="OALJ4pV27kW1UMWHQgB1-24" value="" style="endArrow=none;html=1;rounded=0;exitX=0;exitY=1;exitDx=0;exitDy=0;entryX=1;entryY=0;entryDx=0;entryDy=0;" edge="1" parent="1" source="haapXU8JdJSd_qIYxCa1-2" target="haapXU8JdJSd_qIYxCa1-2">
          <mxGeometry width="50" height="50" relative="1" as="geometry">
            <mxPoint x="315" y="380" as="sourcePoint" />
            <mxPoint x="365" y="330" as="targetPoint" />
            <Array as="points" />
          </mxGeometry>
        </mxCell>
        <mxCell id="OALJ4pV27kW1UMWHQgB1-25" value="" style="endArrow=none;html=1;rounded=0;exitX=0;exitY=0;exitDx=0;exitDy=0;entryX=0.909;entryY=0.753;entryDx=0;entryDy=0;entryPerimeter=0;" edge="1" parent="1" source="haapXU8JdJSd_qIYxCa1-2" target="haapXU8JdJSd_qIYxCa1-2">
          <mxGeometry width="50" height="50" relative="1" as="geometry">
            <mxPoint x="280" y="394" as="sourcePoint" />
            <mxPoint x="378" y="296" as="targetPoint" />
            <Array as="points" />
          </mxGeometry>
        </mxCell>
        <mxCell id="OALJ4pV27kW1UMWHQgB1-26" value="lorem" style="rounded=1;whiteSpace=wrap;html=1;" vertex="1" parent="1">
          <mxGeometry x="285" y="290" width="110" height="25" as="geometry" />
        </mxCell>
        <mxCell id="OALJ4pV27kW1UMWHQgB1-28" value="lorem" style="rounded=1;whiteSpace=wrap;html=1;" vertex="1" parent="1">
          <mxGeometry x="290" y="120" width="80" height="15" as="geometry" />
        </mxCell>
        <mxCell id="OALJ4pV27kW1UMWHQgB1-33" value="lorem" style="rounded=1;whiteSpace=wrap;html=1;" vertex="1" parent="1">
          <mxGeometry x="290" y="150" width="80" height="15" as="geometry" />
        </mxCell>
        <mxCell id="OALJ4pV27kW1UMWHQgB1-34" value="lorem" style="rounded=1;whiteSpace=wrap;html=1;" vertex="1" parent="1">
          <mxGeometry x="290" y="205" width="80" height="15" as="geometry" />
        </mxCell>
        <mxCell id="OALJ4pV27kW1UMWHQgB1-35" value="lorem" style="rounded=1;whiteSpace=wrap;html=1;" vertex="1" parent="1">
          <mxGeometry x="290" y="180" width="80" height="15" as="geometry" />
        </mxCell>
        <mxCell id="OALJ4pV27kW1UMWHQgB1-36" value="lorem" style="rounded=1;whiteSpace=wrap;html=1;" vertex="1" parent="1">
          <mxGeometry x="290" y="90" width="80" height="15" as="geometry" />
        </mxCell>
        <mxCell id="OALJ4pV27kW1UMWHQgB1-37" value="lorem" style="rounded=1;whiteSpace=wrap;html=1;" vertex="1" parent="1">
          <mxGeometry x="395" y="160" width="80" height="15" as="geometry" />
        </mxCell>
        <mxCell id="OALJ4pV27kW1UMWHQgB1-38" value="lorem" style="rounded=1;whiteSpace=wrap;html=1;" vertex="1" parent="1">
          <mxGeometry x="395" y="180" width="80" height="15" as="geometry" />
        </mxCell>
        <mxCell id="OALJ4pV27kW1UMWHQgB1-39" value="lorem" style="rounded=1;whiteSpace=wrap;html=1;" vertex="1" parent="1">
          <mxGeometry x="395" y="205" width="80" height="15" as="geometry" />
        </mxCell>
        <mxCell id="OALJ4pV27kW1UMWHQgB1-44" style="edgeStyle=orthogonalEdgeStyle;rounded=0;orthogonalLoop=1;jettySize=auto;html=1;exitX=0.5;exitY=1;exitDx=0;exitDy=0;" edge="1" parent="1" source="haapXU8JdJSd_qIYxCa1-4" target="haapXU8JdJSd_qIYxCa1-4">
          <mxGeometry relative="1" as="geometry" />
        </mxCell>
        <mxCell id="OALJ4pV27kW1UMWHQgB1-50" value="lorem" style="rounded=1;whiteSpace=wrap;html=1;" vertex="1" parent="1">
          <mxGeometry x="395" y="90" width="80" height="15" as="geometry" />
        </mxCell>
        <mxCell id="OALJ4pV27kW1UMWHQgB1-51" value="lorem" style="rounded=1;whiteSpace=wrap;html=1;" vertex="1" parent="1">
          <mxGeometry x="395" y="135" width="80" height="15" as="geometry" />
        </mxCell>
        <mxCell id="OALJ4pV27kW1UMWHQgB1-52" value="lorem" style="rounded=1;whiteSpace=wrap;html=1;" vertex="1" parent="1">
          <mxGeometry x="395" y="110" width="80" height="15" as="geometry" />
        </mxCell>
        <mxCell id="OALJ4pV27kW1UMWHQgB1-54" value="" style="ellipse;whiteSpace=wrap;html=1;" vertex="1" parent="1">
          <mxGeometry x="290" y="40" width="40" height="35" as="geometry" />
        </mxCell>
        <mxCell id="OALJ4pV27kW1UMWHQgB1-55" value="" style="ellipse;whiteSpace=wrap;html=1;" vertex="1" parent="1">
          <mxGeometry x="435" y="40" width="40" height="35" as="geometry" />
        </mxCell>
        <mxCell id="OALJ4pV27kW1UMWHQgB1-56" value="" style="endArrow=none;html=1;rounded=0;entryX=1;entryY=0;entryDx=0;entryDy=0;" edge="1" parent="1" target="OALJ4pV27kW1UMWHQgB1-55">
          <mxGeometry width="50" height="50" relative="1" as="geometry">
            <mxPoint x="440" y="70" as="sourcePoint" />
            <mxPoint x="475" y="32.5" as="targetPoint" />
          </mxGeometry>
        </mxCell>
        <mxCell id="OALJ4pV27kW1UMWHQgB1-57" value="" style="endArrow=none;html=1;rounded=0;entryX=0;entryY=0;entryDx=0;entryDy=0;exitX=0.615;exitY=1.013;exitDx=0;exitDy=0;exitPerimeter=0;" edge="1" parent="1" source="haapXU8JdJSd_qIYxCa1-12" target="OALJ4pV27kW1UMWHQgB1-55">
          <mxGeometry width="50" height="50" relative="1" as="geometry">
            <mxPoint x="400" y="290" as="sourcePoint" />
            <mxPoint x="450" y="240" as="targetPoint" />
          </mxGeometry>
        </mxCell>
        <mxCell id="OALJ4pV27kW1UMWHQgB1-58" value="" style="endArrow=none;html=1;rounded=0;entryX=0;entryY=0;entryDx=0;entryDy=0;exitX=1;exitY=1;exitDx=0;exitDy=0;" edge="1" parent="1" source="OALJ4pV27kW1UMWHQgB1-54" target="OALJ4pV27kW1UMWHQgB1-54">
          <mxGeometry width="50" height="50" relative="1" as="geometry">
            <mxPoint x="400" y="290" as="sourcePoint" />
            <mxPoint x="450" y="240" as="targetPoint" />
          </mxGeometry>
        </mxCell>
        <mxCell id="OALJ4pV27kW1UMWHQgB1-59" value="" style="endArrow=none;html=1;rounded=0;entryX=1;entryY=0;entryDx=0;entryDy=0;exitX=0;exitY=1;exitDx=0;exitDy=0;" edge="1" parent="1" source="OALJ4pV27kW1UMWHQgB1-54" target="OALJ4pV27kW1UMWHQgB1-54">
          <mxGeometry width="50" height="50" relative="1" as="geometry">
            <mxPoint x="400" y="290" as="sourcePoint" />
            <mxPoint x="450" y="240" as="targetPoint" />
          </mxGeometry>
        </mxCell>
      </root>
    </mxGraphModel>
  </diagram>
</mxfile>
